# AST/ASF file generated using VICON BodyLanguage
# -----------------------------------------------
:version 1.10
:name VICON
:units
  mass 1.0
  length 0.45
  angle deg
:documentation
   .ast/.asf automatically generated from VICON data using
   VICON BodyBuilder and BodyLanguage model FoxedUp or BRILLIANT.MOD
:root
   order TX TY TZ RX RY RZ
   axis XYZ
   position 0 0 0  
   orientation 0 -0 0 
:bonedata
  begin
     id 1 
     name lhipjoint
     direction 0.432694 -0.693742 0.575759 
     length 2.19277 
     axis 0 -0 0  XYZ
  end
  begin
     id 2 
     name lfemur
     direction 0.34202 -0.939693 0  
     length 6.69022  
     axis 0 -0 20  XYZ
    dof rx ry rz
    limits (-160.0 20.0)
           (-70.0 70.0)
           (-60.0 70.0)
  end
  begin
     id 3 
     name ltibia
     direction 0.34202 -0.939693 0   
     length 6.50337   
     axis 0 -0 20   XYZ
    dof rx
    limits (-10.0 170.0)
  end
  begin
     id 4 
     name lfoot
     direction 0.158999 -0.435969 0.885805   
     length 2.70564   
     axis -90 -1.13533e-015 20   XYZ
    dof rx rz
    limits (-45.0 90.0)
           (-70.0 20.0)
  end
  begin
     id 5 
     name ltoes
     direction -0.00592919 0.00964381 0.999936   
     length 1.29929   
     axis -90 -1.13533e-015 20   XYZ
    dof rx
    limits (-90.0 20.0)
  end
  begin
     id 6 
     name rhipjoint
     direction -0.414359 -0.700339 0.581234   
     length 2.17212  
     axis 0 -0 0  XYZ 
  end
  begin
     id 7 
     name rfemur
     direction -0.34202 -0.939693 0   
     length 7.17659   
     axis 0 -0 -20   XYZ
    dof rx ry rz
    limits (-160.0 20.0)
           (-70.0 70.0)
           (-70.0 60.0)
  end
  begin
     id 8 
     name rtibia
     direction -0.34202 -0.939693 0   
     length 6.36669   
     axis 0 -0 -20   XYZ
    dof rx
    limits (-10.0 170.0)
 end
 begin
     id 9 
     name rfoot
     direction -0.137064 -0.37658 0.916188   
     length 2.22351  
     axis -90 1.13533e-015 -20   XYZ
    dof rx rz
    limits (-45.0 90.0)
           (-20.0 70.0)
  end
  begin
     id 10 
     name rtoes
     direction -0.000784077 -0.00289101 0.999996   
     length 1.09522   
     axis -90 1.13533e-015 -20   XYZ
    dof rx
    limits (-90.0 20.0)
  end
  begin
     id 11 
     name lowerback
     direction -0.0176242 0.984912 -0.172157   
     length 1.65301   
     axis 0 -0 0   XYZ
    dof rx ry rz
    limits (-20.0 45.0)
           (-30.0 30.0)
           (-30.0 30.0)
  end
  begin
     id 12 
     name upperback
     direction -0.00218128 0.998776 -0.0494072   
     length 1.67776   
     axis 0 -0 0   XYZ
    dof rx ry rz
    limits (-20.0 45.0)
           (-30.0 30.0)
           (-30.0 30.0)
  end
  begin
     id 13 
     name thorax
     direction 0.00544186 0.999658 0.0255711   
     length 1.72293   
     axis 0 -0 0   XYZ
    dof rx ry rz
    limits (-20.0 45.0)
           (-30.0 30.0)
           (-30.0 30.0)
  end
  begin
     id 14 
     name lowerneck
     direction -0.105325 0.983841 0.144785   
     length 2.14226   
     axis 0 -0 0   XYZ
    dof rx ry rz
    limits (-20.0 45.0)
           (-30.0 30.0)
           (-30.0 30.0)
  end
  begin
     id 15 
     name upperneck
     direction 0.0547957 0.988053 -0.144041   
     length 2.17508   
     axis 0 -0 0   XYZ
    dof rx ry rz
    limits (-20.0 45.0)
           (-30.0 30.0)
           (-30.0 30.0)
  end
  begin
     id 16
     name head
     direction 0.0247488 0.997534 -0.0656813  
     length 2.20048  
     axis 0 -0 0   XYZ
    dof rx ry rz
    limits (-20.0 45.0)
           (-30.0 30.0)
           (-30.0 30.0)
  end
  begin
     id 17 
     name lclavicle
     direction 0.820559 0.567247 -0.0701026  
     length 4.09615  
     axis 0 -0 0   XYZ
    dof ry rz
    limits (-20.0 10.0)
           (0.0 20.0)
  end
  begin
     id 18 
     name lhumerus
     direction 0.999977 -0.0067566 -9.96392e-005   
     length 4.59333   
     axis -180 -30 -90   XYZ
    dof rx ry rz
    limits (-60.0 90.0)
           (-90.0 90.0)
           (-90.0 90.0)
  end
  begin
     id 19
     name lradius
     direction 1 -4.48982e-011 -2.53425e-027   
     length 2.81151   
     axis -180 -30 -90   XYZ
    dof rx
    limits (-10.0 170.0)
  end
  begin
     id 20
     name lwrist
     direction 1 -4.48939e-011 -7.39254e-028   
     length 1.40576   
     axis 2.56395e-016 90 90   XYZ
    dof ry
    limits (-180.0 0.0)
 end
  begin
     id 21 
     name lhand
     direction 1 -4.48939e-011 -1.47851e-027   
     length 0.895651   
     axis 9.43423e-016 90 90   XYZ
    dof rx rz
    limits (-90.0 90.0)
           (-45.0 45.0)
  end
  begin
     id 22 
     name lfingers
     direction 1 -4.48978e-011 -2.95702e-027   
     length 0.722097   
     axis 1.88685e-015 90 90   XYZ
    dof rx
    limits (0.0 90.0)
  end
  begin
     id 23
     name lthumb
     direction 0.707107 -6.34931e-011 0.707107   
     length 1.03679   
     axis -90 45 -9.86935e-015   XYZ
    dof rx rz
    limits (-45.0 45.0)
           (-45.0 45.0)
  end
  begin
     id 24 
     name rclavicle
     direction -0.831414 0.553102 -0.0531864   
     length 4.24872  
     axis 0 -0 0   XYZ 
    dof ry rz
    limits (-10.0 20.0)
           (-20.0 0.0)
  end
  begin
     id 25 
     name rhumerus
     direction -0.999916 -0.000939607 0.0129331  
     length 4.74834   
     axis -180 30 90   XYZ
    dof rx ry rz
    limits (-90.0 60.0)
           (-90.0 90.0)
           (-90.0 90.0)
  end
  begin
     id 26 
     name rradius
     direction -1 -4.48956e-011 -1.31752e-027   
     length 2.79907   
     axis -180 30 90   XYZ
    dof rx
    limits (-10.0 170.0)
  end
  begin
     id 27 
     name rwrist
     direction -1 -4.4897e-011 -7.39254e-028   
     length 1.39954   
     axis 2.56395e-016 -90 -90   XYZ
    dof ry
    limits (-180.0 0.0)
  end
  begin
     id 28
     name rhand
     direction -0.999997 -0.00250697 0.000800838   
     length 0.953304   
     axis 9.43423e-016 -90 -90   XYZ
    dof rx rz
    limits (-90.0 90.0)
           (-45.0 45.0)
  end
  begin
     id 29
     name rfingers
     direction -1 -4.48954e-011 -2.95702e-027   
     length 0.763342   
     axis 1.88685e-015 -90 -90   XYZ
    dof rx
    limits (0.0 90.0)
  end
  begin
     id 30
     name rthumb
     direction -0.709701 -0.00217037 0.7045   
     length 1.10115   
     axis -90 -45 9.86935e-015   XYZ
    dof rx rz
    limits (-45.0 45.0)
           (-45.0 45.0)
  end
:hierarchy
  begin
    root lhipjoint rhipjoint lowerback
    lhipjoint lfemur
    lfemur ltibia
    ltibia lfoot
    lfoot ltoes
    rhipjoint rfemur
    rfemur rtibia
    rtibia rfoot
    rfoot rtoes
    lowerback upperback
    upperback thorax
    thorax lowerneck lclavicle rclavicle
    lowerneck upperneck
    upperneck head
    lclavicle lhumerus
    lhumerus lradius
    lradius lwrist
    lwrist lhand lthumb
    lhand lfingers
    rclavicle rhumerus
    rhumerus rradius
    rradius rwrist
    rwrist rhand rthumb
    rhand rfingers
  end

#!OML:ASF G:\ViconDB\ViconDB\414\test\team2\shane.ASF
:FULLY-SPECIFIED
:DEGREES
115
root 7.74156 17.1605 -4.84368 6.3838 -19.2218 -5.61413
lowerback 13.9599 0.388872 3.51005
upperback 5.82629 0.971608 2.73736
thorax -1.67225 0.470987 0.731911
lowerneck -26.0761 6.81889 -1.31364
upperneck 15.9417 9.91025 -0.658396
head 9.20621 4.4501 1.46539
rclavicle -5.87409e-014 -1.59028e-015
rhumerus -47.5711 26.1181 -99.4687
rradius 68.0455
rwrist 22.8014
rhand -28.9785 -9.86465
rfingers 7.12502
rthumb -2.33094 -39.8317
lclavicle -5.87409e-014 -1.59028e-015
lhumerus -42.2855 -35.0521 105.144
lradius 59.3182
lwrist -8.28366
lhand -40.6186 3.17032
lfingers 7.12502
lthumb -13.5641 32.7085
rfemur 14.4932 -6.1411 6.68468
rtibia 18.9656
rfoot 19.9905 -18.5659
rtoes -0.258755
lfemur -27.6969 22.8506 -14.5695
ltibia 42.6427
lfoot -25.3965 -10.8465
ltoes -15.776
116
root 7.73924 17.1087 -4.61422 5.80989 -19.0116 -5.96768
lowerback 13.3898 0.420561 3.85131
upperback 5.58691 1.04011 2.75312
thorax -1.60961 0.51095 0.549707
lowerneck -25.7341 6.75189 -1.33385
upperneck 16.323 9.7987 -0.480361
head 9.27304 4.41169 1.51174
rclavicle 9.44227e-015 4.37326e-014
rhumerus -47.5576 26.0369 -98.8352
rradius 68.0101
rwrist 22.656
rhand -28.7616 -10.0044
rfingers 7.12502
rthumb -2.12149 -39.9736
lclavicle 9.44227e-015 4.37326e-014
lhumerus -41.9468 -33.6596 103.316
lradius 59.6311
lwrist -8.42671
lhand -40.3046 2.93597
lfingers 7.12502
lthumb -13.2614 32.4941
rfemur 15.7809 -5.78878 6.77542
rtibia 18.9779
rfoot 20.9656 -18.6404
rtoes 1.15811
lfemur -26.6899 22.2983 -14.2622
ltibia 41.7259
lfoot -24.5766 -10.6549
ltoes -16.4602
117
root 7.73505 17.0428 -4.38571 5.11126 -18.937 -6.30422
lowerback 12.9777 0.47156 4.0864
upperback 5.37714 1.1247 2.74734
thorax -1.60058 0.556384 0.402224
lowerneck -25.6314 6.68361 -1.36079
upperneck 16.8567 9.65986 -0.143622
head 9.42412 4.37259 1.62261
rclavicle -1.3418e-014 2.40529e-014
rhumerus -47.3728 25.9859 -98.0572
rradius 67.7502
rwrist 23.1837
rhand -28.7945 -9.93128
rfingers 7.12502
rthumb -2.15322 -39.9002
lclavicle -1.3418e-014 2.40529e-014
lhumerus -41.8237 -32.6421 101.545
lradius 59.9963
lwrist -8.15988
lhand -40.2891 2.81533
lfingers 7.12502
lthumb -13.2464 32.3744
rfemur 16.8596 -5.28822 6.89139
rtibia 19.7191
rfoot 21.051 -18.4045
rtoes 2.04786
lfemur -25.3673 21.4867 -13.7957
ltibia 40.9561
lfoot -23.5182 -10.5242
ltoes -16.6066
118
root 7.73809 16.9639 -4.15618 4.43285 -19.1264 -6.67769
lowerback 12.5214 0.607387 4.3709
upperback 5.17399 1.32102 2.73051
thorax -1.55455 0.658054 0.202176
lowerneck -25.3174 6.63885 -1.31867
upperneck 17.1955 9.5383 0.0945107
head 9.48055 4.34276 1.67867
rclavicle -4.01545e-014 1.98785e-014
rhumerus -47.1133 25.7932 -97.1392
rradius 67.6252
rwrist 23.6686
rhand -28.5765 -9.85827
rfingers 7.12502
rthumb -1.94265 -39.8292
lclavicle -4.01545e-014 1.98785e-014
lhumerus -41.8006 -31.8449 99.8405
lradius 60.3143
lwrist -8.31135
lhand -40.4097 3.3748
lfingers 7.12502
lthumb -13.3627 32.9263
rfemur 17.5138 -4.57152 6.99879
rtibia 21.1551
rfoot 20.4209 -17.8609
rtoes 2.70697
lfemur -23.9079 20.2535 -13.2083
ltibia 40.3727
lfoot -22.0177 -10.8786
ltoes -14.9237
119
root 7.73582 16.858 -3.93274 3.61887 -19.286 -7.13844
lowerback 12.2715 0.715479 4.46886
upperback 4.95902 1.47607 2.89048
thorax -1.64149 0.732457 0.294591
lowerneck -24.9318 6.69015 -1.29491
upperneck 17.6393 9.56863 0.284839
head 9.56194 4.37445 1.74437
rclavicle -2.4202e-014 -9.14409e-015
rhumerus -46.9288 24.6766 -95.8356
rradius 67.4828
rwrist 26.18
rhand -27.9634 -9.09337
rfingers 7.12502
rthumb -1.35056 -39.0688
lclavicle -2.4202e-014 -9.14409e-015
lhumerus -41.9101 -30.681 98.2746
lradius 60.8655
lwrist -8.29466
lhand -39.8754 3.27339
lfingers 7.12502
lthumb -12.8477 32.858
rfemur 18.1066 -4.15199 7.15688
rtibia 23.179
rfoot 19.2058 -16.2448
rtoes 1.09569
lfemur -22.3185 19.3502 -12.4825
ltibia 40.1043
lfoot -19.9676 -12.6426
ltoes -5.64295
120
root 7.73487 16.7299 -3.71191 2.58335 -19.4698 -7.50516
lowerback 12.1468 0.820247 4.67065
upperback 4.83275 1.63769 2.91442
thorax -1.6958 0.813242 0.186024
lowerneck -24.443 6.57855 -1.40821
upperneck 17.8571 9.36524 0.680218
head 9.5298 4.32159 1.85557
rclavicle 2.31087e-014 1.39149e-014
rhumerus -46.8076 25.0093 -95.1751
rradius 67.4162
rwrist 24.5588
rhand -28.112 -8.96819
rfingers 7.12502
rthumb -1.49412 -38.9427
lclavicle 2.31087e-014 1.39149e-014
lhumerus -41.7854 -29.5455 96.5415
lradius 60.9085
lwrist -8.72641
lhand -39.6472 3.15855
lfingers 7.12502
lthumb -12.6276 32.7569
rfemur 18.8249 -3.58384 7.25313
rtibia 25.3208
rfoot 17.3259 -14.6323
rtoes -1.08551
lfemur -20.2996 18.325 -11.9446
ltibia 40.293
lfoot -20.9739 -11.4683
ltoes -2.02851
121
root 7.74042 16.5968 -3.5047 1.67472 -19.7375 -7.74994
lowerback 12.0934 0.898416 4.73755
upperback 4.64864 1.75782 2.95712
thorax -1.85499 0.869374 0.175916
lowerneck -23.7318 6.63647 -1.33542
upperneck 17.6934 9.40809 0.670648
head 9.35355 4.35729 1.81488
rclavicle 7.55382e-015 1.25234e-014
rhumerus -46.3245 24.4496 -94.0539
rradius 67.3312
rwrist 24.9228
rhand -27.9614 -9.02156
rfingers 7.12502
rthumb -1.34862 -38.997
lclavicle 7.55382e-015 1.25234e-014
lhumerus -41.804 -28.3907 95.0188
lradius 60.865
lwrist -10.3288
lhand -39.6677 3.39563
lfingers 7.12502
lthumb -12.6475 32.9927
rfemur 19.2108 -3.04502 7.18588
rtibia 27.6142
rfoot 15.3127 -13.0892
rtoes -2.631
lfemur -18.2877 17.4589 -11.595
ltibia 40.8907
lfoot -24.9198 -9.74508
ltoes -6.46963
122
root 7.74637 16.5167 -3.28664 0.749971 -19.8617 -7.79019
lowerback 12.1336 0.825572 4.58307
upperback 4.52493 1.65286 2.86228
thorax -2.01182 0.813653 0.175091
lowerneck -23.1507 6.80319 -1.15333
upperneck 17.2701 9.55746 0.66011
head 9.11304 4.45483 1.76823
rclavicle -6.00827e-014 -1.32192e-014
rhumerus -45.3627 24.0375 -93.1748
rradius 66.5159
rwrist 25.4835
rhand -28.9139 -8.39708
rfingers 7.12502
rthumb -2.2686 -38.3648
lclavicle -6.00827e-014 -1.32192e-014
lhumerus -41.3815 -26.961 93.1054
lradius 60.9202
lwrist -10.7691
lhand -39.4882 3.01069
lfingers 7.12502
lthumb -12.4743 32.6184
rfemur 19.4307 -2.63725 7.02381
rtibia 29.9231
rfoot 13.7171 -11.6325
rtoes -4.02519
lfemur -16.8031 16.6878 -11.5945
ltibia 41.8501
lfoot -25.9784 -8.03758
ltoes -5.51238
123
root 7.75896 16.437 -3.08025 -0.0971685 -19.9361 -7.57765
lowerback 12.2234 0.762904 4.41656
upperback 4.3308 1.5637 2.6594
thorax -2.26585 0.764712 0.0652594
lowerneck -22.2953 7.02968 -0.719479
upperneck 16.5662 9.79869 0.196045
head 8.76927 4.56748 1.52419
rclavicle -5.90266e-014 -5.09883e-014
rhumerus -44.5415 23.8146 -92.4398
rradius 66.2275
rwrist 25.9532
rhand -28.9932 -9.12623
rfingers 7.12502
rthumb -2.3451 -39.0931
lclavicle -5.90266e-014 -5.09883e-014
lhumerus -40.9835 -25.9547 91.4414
lradius 60.6714
lwrist -11.829
lhand -39.2212 2.6884
lfingers 7.12502
lthumb -12.217 32.3116
rfemur 19.3207 -2.25757 6.68094
rtibia 32.3943
rfoot 12.3195 -10.3591
rtoes -5.32747
lfemur -15.7135 15.502 -11.8805
ltibia 42.8554
lfoot -26.7053 -6.45654
ltoes -5.49941
124
root 7.76337 16.3737 -2.89056 -1.15102 -19.7135 -6.97735
lowerback 12.4385 0.5667 3.74212
upperback 4.31164 1.23362 2.42865
thorax -2.42429 0.597325 0.245356
lowerneck -21.9381 7.26269 -0.645092
upperneck 16.1499 10.1332 -0.0654627
head 8.58207 4.71332 1.44376
rclavicle 1.50238e-014 -2.34442e-014
rhumerus -43.1403 22.4843 -91.5052
rradius 65.4584
rwrist 27.4191
rhand -29.5461 -9.45279
rfingers 7.12502
rthumb -2.87915 -39.4131
lclavicle 1.50238e-014 -2.34442e-014
lhumerus -39.7758 -24.5332 89.8751
lradius 59.6972
lwrist -12.6529
lhand -39.223 1.99905
lfingers 7.12502
lthumb -12.2187 31.6221
rfemur 19.1552 -2.20745 5.96542
rtibia 34.9585
rfoot 10.8614 -9.39774
rtoes -6.11304
lfemur -14.5355 14.4896 -12.5428
ltibia 43.7564
lfoot -27.4272 -5.46524
ltoes -5.66116
125
root 7.75195 16.3132 -2.71677 -2.23068 -19.027 -6.18234
lowerback 12.6898 0.355047 2.74878
upperback 4.24573 0.843654 2.16701
thorax -2.65154 0.399976 0.584007
lowerneck -21.4988 7.4315 -0.496845
upperneck 15.7896 10.3298 -0.195501
head 8.39898 4.81438 1.37544
rclavicle 5.34234e-015 -1.48343e-014
rhumerus -41.9186 21.0648 -90.6615
rradius 64.911
rwrist 27.5959
rhand -30.0621 -9.94726
rfingers 7.12502
rthumb -3.37746 -39.9003
lclavicle 5.34234e-015 -1.48343e-014
lhumerus -38.7417 -24.3032 88.6692
lradius 58.5347
lwrist -13.1761
lhand -39.5287 2.31618
lfingers 7.12502
lthumb -12.5135 31.9215
rfemur 18.84 -2.42086 5.27078
rtibia 37.808
rfoot 9.32591 -9.02981
rtoes -5.9884
lfemur -13.3684 13.8791 -13.2702
ltibia 44.3369
lfoot -28.2479 -5.6227
ltoes -5.6962
126
root 7.73473 16.2816 -2.55443 -2.85997 -18.1834 -6.08126
lowerback 12.7587 0.0815449 2.21996
upperback 4.20978 0.425274 2.22641
thorax -2.73557 0.190643 1.00503
lowerneck -21.1877 7.4967 -0.758033
upperneck 15.2454 10.4808 -0.222647
head 8.14845 4.88467 1.39523
rclavicle 3.00041e-015 8.89561e-015
rhumerus -40.801 19.6849 -89.6863
rradius 64.1457
rwrist 27.8393
rhand -30.4598 -10.3801
rfingers 7.12502
rthumb -3.76146 -40.3266
lclavicle 3.00041e-015 8.89561e-015
lhumerus -36.9236 -23.7435 87.7142
lradius 56.3077
lwrist -13.4859
lhand -39.5946 1.54689
lfingers 7.12502
lthumb -12.577 31.1483
rfemur 18.1061 -2.85292 5.55309
rtibia 40.7604
rfoot 7.80188 -9.08443
rtoes -5.9701
lfemur -12.3078 13.3985 -13.2688
ltibia 44.6208
lfoot -29.0288 -6.05418
ltoes -5.72826
127
root 7.71695 16.2649 -2.388 -3.24496 -17.5041 -6.45726
lowerback 12.509 -0.121111 2.28147
upperback 4.33179 0.154382 2.31217
thorax -2.47182 0.0577905 1.09869
lowerneck -21.0683 7.37776 -1.28529
upperneck 14.6243 10.3781 0.145952
head 7.86924 4.86325 1.55606
rclavicle -3.47873e-015 -1.03368e-014
rhumerus -39.5397 17.5058 -88.698
rradius 63.0298
rwrist 29.055
rhand -31.0211 -11.0811
rfingers 7.12502
rthumb -4.30353 -41.0174
lclavicle -3.47873e-015 -1.03368e-014
lhumerus -34.4628 -24.0254 86.9322
lradius 53.4459
lwrist -13.3041
lhand -40.19 2.02869
lfingers 7.12502
lthumb -13.1509 31.594
rfemur 17.095 -3.48636 6.33508
rtibia 43.6962
rfoot 6.41393 -9.21923
rtoes -7.02948
lfemur -11.1513 13.4996 -12.7104
ltibia 44.542
lfoot -29.6594 -6.72661
ltoes -5.83364
128
root 7.71224 16.2554 -2.22173 -3.738 -17.0031 -6.52617
lowerback 12.3161 -0.268003 2.25702
upperback 4.41029 -0.0511695 2.35554
thorax -2.28447 -0.0433804 1.18556
lowerneck -20.8562 7.34706 -1.69997
upperneck 14.1475 10.4317 0.177156
head 7.64989 4.88381 1.61034
rclavicle 3.88003e-014 -1.2921e-014
rhumerus -38.6748 15.9274 -87.9762
rradius 61.8629
rwrist 28.7416
rhand -32.3775 -12.416
rfingers 7.12502
rthumb -5.61321 -42.3216
lclavicle 3.88003e-014 -1.2921e-014
lhumerus -32.2629 -24.0381 86.6294
lradius 50.705
lwrist -12.9016
lhand -40.008 1.89856
lfingers 7.12502
lthumb -12.9755 31.4751
rfemur 16.0123 -4.09314 6.68176
rtibia 46.5052
rfoot 5.19064 -9.33965
rtoes -8.09777
lfemur -9.81923 13.5776 -12.5182
ltibia 44.1747
lfoot -30.1459 -7.29451
ltoes -5.63241
